<svg width="39" height="50" viewBox="0 0 39 50" fill="none" xmlns="http://www.w3.org/2000/svg">
<path d="M37.9608 27.8326C38.6262 28.5023 39 29.4106 39 30.3576C39 31.3046 38.6262 32.2129 37.9608 32.8826L21.9881 48.9543C21.3224 49.6239 20.4198 50 19.4786 50C18.5374 50 17.6347 49.6239 16.9691 48.9543L0.996384 32.8826C0.349816 32.2091 -0.00794946 31.3069 0.000137691 30.3705C0.00822484 29.434 0.38152 28.5383 1.03962 27.8761C1.69773 27.2139 2.58798 26.8383 3.51865 26.8301C4.44931 26.822 5.34592 27.182 6.01536 27.8326L15.9291 37.5006L15.9291 3.57148C15.9291 2.62427 16.303 1.71585 16.9687 1.04606C17.6344 0.376281 18.5372 2.44017e-07 19.4786 2.32791e-07C20.42 2.21565e-07 21.3228 0.37628 21.9884 1.04606C22.6541 1.71585 23.0281 2.62427 23.0281 3.57148L23.0281 37.5006L32.9418 27.8326C33.6074 27.163 34.5101 26.7869 35.4513 26.7869C36.3925 26.7869 37.2951 27.163 37.9608 27.8326Z" fill="black"/>
</svg>
