<svg width="50" height="40" viewBox="0 0 50 40" fill="none" xmlns="http://www.w3.org/2000/svg">
<path d="M27.8326 1.28924C28.5023 0.623815 29.4106 0.25 30.3576 0.25C31.3046 0.25 32.2129 0.623815 32.8826 1.28924L48.9543 17.2619C49.6239 17.9276 50 18.8302 50 19.7714C50 20.7126 49.6239 21.6153 48.9543 22.2809L32.8826 38.2536C32.2091 38.9002 31.3069 39.2579 30.3705 39.2499C29.434 39.2418 28.5383 38.8685 27.8761 38.2104C27.2139 37.5523 26.8383 36.662 26.8301 35.7314C26.822 34.8007 27.182 33.9041 27.8326 33.2346L37.5006 23.3209H3.57148C2.62427 23.3209 1.71585 22.947 1.04606 22.2813C0.37628 21.6156 0 20.7128 0 19.7714C0 18.83 0.37628 17.9272 1.04606 17.2616C1.71585 16.5959 2.62427 16.2219 3.57148 16.2219H37.5006L27.8326 6.30822C27.163 5.64259 26.7869 4.73993 26.7869 3.79873C26.7869 2.85753 27.163 1.95487 27.8326 1.28924Z" fill="black"/>
</svg>
