<svg width="67" height="41" viewBox="0 0 67 41" fill="none" xmlns="http://www.w3.org/2000/svg">
<path fill-rule="evenodd" clip-rule="evenodd" d="M56.95 0.25C59.6154 0.25 62.1717 1.30357 64.0564 3.17893C65.9412 5.0543 67 7.59784 67 10.25V30.25C67 32.9022 65.9412 35.4457 64.0564 37.3211C62.1717 39.1964 59.6154 40.25 56.95 40.25H10.05C7.38457 40.25 4.82832 39.1964 2.94358 37.3211C1.05884 35.4457 0 32.9022 0 30.25V10.25C0 7.59784 1.05884 5.0543 2.94358 3.17893C4.82832 1.30357 7.38457 0.25 10.05 0.25H56.95ZM56.95 6.91667H10.05C9.22947 6.91677 8.43752 7.21652 7.82435 7.75905C7.21119 8.30158 6.81945 9.04916 6.72345 9.86L6.7 10.25V30.25C6.70011 31.0664 7.00135 31.8545 7.5466 32.4646C8.09184 33.0747 8.84316 33.4645 9.65805 33.56L10.05 33.5833V26.9167C10.0501 26.1002 10.3514 25.3122 10.8966 24.7021C11.4418 24.092 12.1932 23.7022 13.008 23.6067L13.4 23.5833H53.6C54.4205 23.5834 55.2125 23.8832 55.8256 24.4257C56.4388 24.9682 56.8305 25.7158 56.9265 26.5267L56.95 26.9167V33.5833C57.7705 33.5832 58.5625 33.2835 59.1756 32.7409C59.7888 32.1984 60.1805 31.4508 60.2766 30.64L60.3 30.25V10.25C60.2999 9.43356 59.9986 8.64554 59.4534 8.03543C58.9082 7.42531 58.1568 7.03552 57.3419 6.94L56.95 6.91667ZM50.25 30.25H16.75V33.5833H50.25V30.25ZM50.25 10.25C51.1385 10.25 51.9906 10.6012 52.6188 11.2263C53.2471 11.8514 53.6 12.6993 53.6 13.5833C53.6 14.4674 53.2471 15.3152 52.6188 15.9404C51.9906 16.5655 51.1385 16.9167 50.25 16.9167C49.3615 16.9167 48.5094 16.5655 47.8812 15.9404C47.2529 15.3152 46.9 14.4674 46.9 13.5833C46.9 12.6993 47.2529 11.8514 47.8812 11.2263C48.5094 10.6012 49.3615 10.25 50.25 10.25Z" fill="black"/>
</svg>
