<svg width="40" height="51" viewBox="0 0 40 51" fill="none" xmlns="http://www.w3.org/2000/svg">
<path d="M1.39123 22.4174C0.725804 21.7477 0.351988 20.8394 0.351988 19.8924C0.351988 18.9454 0.725804 18.0371 1.39123 17.3674L17.3639 1.29568C18.0296 0.626132 18.9322 0.249999 19.8734 0.249999C20.8146 0.249999 21.7173 0.626132 22.3829 1.29568L38.3556 17.3674C39.0022 18.0409 39.3599 18.9431 39.3519 19.8795C39.3438 20.816 38.9705 21.7117 38.3124 22.3739C37.6543 23.0361 36.764 23.4117 35.8333 23.4199C34.9027 23.428 34.0061 23.068 33.3366 22.4174L23.4229 12.7494L23.4229 46.6785C23.4229 47.6257 23.0489 48.5342 22.3833 49.2039C21.7176 49.8737 20.8148 50.25 19.8734 50.25C18.932 50.25 18.0292 49.8737 17.3636 49.2039C16.6979 48.5342 16.3239 47.6257 16.3239 46.6785L16.3239 12.7494L6.41021 22.4174C5.74458 23.087 4.84192 23.4631 3.90072 23.4631C2.95952 23.4631 2.05686 23.087 1.39123 22.4174Z" fill="black"/>
</svg>
