<svg width="50" height="39" viewBox="0 0 50 39" fill="none" xmlns="http://www.w3.org/2000/svg">
<path d="M22.1674 37.9608C21.4977 38.6262 20.5894 39 19.6424 39C18.6954 39 17.7871 38.6262 17.1174 37.9608L1.04568 21.9881C0.376131 21.3224 -1.62434e-06 20.4198 -1.70662e-06 19.4786C-1.7889e-06 18.5374 0.376131 17.6347 1.04568 16.9691L17.1174 0.996387C17.7909 0.349818 18.6931 -0.00794709 19.6295 0.000139984C20.566 0.00822706 21.4617 0.381522 22.1239 1.03963C22.7861 1.69773 23.1617 2.58798 23.1699 3.51865C23.178 4.44932 22.818 5.34592 22.1674 6.01536L12.4994 15.9291L46.4285 15.9291C47.3757 15.9291 48.2842 16.303 48.9539 16.9687C49.6237 17.6344 50 18.5372 50 19.4786C50 20.42 49.6237 21.3228 48.9539 21.9884C48.2842 22.6541 47.3757 23.0281 46.4285 23.0281L12.4994 23.0281L22.1674 32.9418C22.837 33.6074 23.2131 34.5101 23.2131 35.4513C23.2131 36.3925 22.837 37.2951 22.1674 37.9608Z" fill="black"/>
</svg>
