<svg width="46" height="58" viewBox="0 0 46 58" fill="none" xmlns="http://www.w3.org/2000/svg">
<path d="M2.55515 27.1197L20.8429 3.31012C21.096 2.98057 21.4224 2.71344 21.7966 2.52955C22.1708 2.34567 22.5828 2.25 23.0004 2.25C23.418 2.25 23.83 2.34567 24.2043 2.52955C24.5785 2.71344 24.9049 2.98057 25.1579 3.31012L43.4457 27.1197C43.8055 27.5882 44.0004 28.161 44.0004 28.75C44.0004 29.339 43.8055 29.9118 43.4457 30.3803L25.1579 54.1899C24.9049 54.5194 24.5785 54.7866 24.2043 54.9704C23.83 55.1543 23.418 55.25 23.0004 55.25C22.5828 55.25 22.1708 55.1543 21.7966 54.9704C21.4224 54.7866 21.096 54.5194 20.8429 54.1899L2.55515 30.3803C2.19531 29.9118 2.00043 29.339 2.00043 28.75C2.00043 28.161 2.19531 27.5882 2.55515 27.1197Z" stroke="black" stroke-width="4"/>
</svg>
