<svg width="49" height="61" viewBox="0 0 49 61" fill="none" xmlns="http://www.w3.org/2000/svg">
<mask id="mask0_12_443" style="mask-type:luminance" maskUnits="userSpaceOnUse" x="0" y="0" width="49" height="61">
<path d="M3.05042 28.5416L22.2091 3.39644C22.4742 3.0484 22.8161 2.76629 23.2081 2.57209C23.6002 2.37789 24.0318 2.27686 24.4693 2.27686C24.9068 2.27686 25.3384 2.37789 25.7304 2.57209C26.1225 2.76629 26.4644 3.0484 26.7295 3.39644L45.8881 28.5416C46.2651 29.0365 46.4693 29.6413 46.4693 30.2634C46.4693 30.8855 46.2651 31.4904 45.8881 31.9852L26.7295 57.1304C26.4644 57.4784 26.1225 57.7606 25.7304 57.9548C25.3384 58.149 24.9068 58.25 24.4693 58.25C24.0318 58.25 23.6002 58.149 23.2081 57.9548C22.8161 57.7606 22.4742 57.4784 22.2091 57.1304L3.05042 31.9852C2.67344 31.4904 2.46928 30.8855 2.46928 30.2634C2.46928 29.6413 2.67344 29.0365 3.05042 28.5416Z" fill="white" stroke="white" stroke-width="4"/>
</mask>
<g mask="url(#mask0_12_443)">
<path d="M-9.6262 -3.83167H58.5641V64.3586H-9.6262V-3.83167Z" fill="black"/>
</g>
</svg>
