<svg width="67" height="57" viewBox="0 0 67 57" fill="none" xmlns="http://www.w3.org/2000/svg">
<path d="M7.9404 52.9562H7.05757C5.31025 52.9562 3.6345 52.262 2.39896 51.0265C1.16342 49.791 0.469299 48.1152 0.469299 46.3679V6.83827C0.469299 5.09095 1.16342 3.4152 2.39896 2.17966C3.6345 0.944119 5.31025 0.25 7.05757 0.25H59.7637C61.511 0.25 63.1868 0.944119 64.4223 2.17966C65.6579 3.4152 66.352 5.09095 66.352 6.83827V46.3679C66.352 48.1152 65.6579 49.791 64.4223 51.0265C63.1868 52.262 61.511 52.9562 59.7637 52.9562H58.8809C58.3026 53.9576 57.471 54.7892 56.4694 55.3674C55.4679 55.9456 54.3319 56.25 53.1755 56.25C52.019 56.25 50.883 55.9456 49.8815 55.3674C48.88 54.7892 48.0483 53.9576 47.47 52.9562H19.3513C18.773 53.9576 17.9413 54.7892 16.9398 55.3674C15.9383 55.9456 14.8023 56.25 13.6458 56.25C12.4894 56.25 11.3534 55.9456 10.3518 55.3674C9.35034 54.7892 8.51866 53.9576 7.9404 52.9562ZM7.05757 6.83827V46.3679H59.7637V6.83827H7.05757ZM13.6458 26.6031H53.1755V39.7796H13.6458V26.6031ZM13.6458 13.4265H30.1165V20.0148H13.6458V13.4265ZM26.8224 29.8972V33.1913H39.9989V29.8972H26.8224ZM39.9989 20.0148C39.1253 20.0148 38.2874 19.6677 37.6696 19.05C37.0518 18.4322 36.7048 17.5943 36.7048 16.7207C36.7048 15.847 37.0518 15.0091 37.6696 14.3914C38.2874 13.7736 39.1253 13.4265 39.9989 13.4265C40.8726 13.4265 41.7104 13.7736 42.3282 14.3914C42.946 15.0091 43.293 15.847 43.293 16.7207C43.293 17.5943 42.946 18.4322 42.3282 19.05C41.7104 19.6677 40.8726 20.0148 39.9989 20.0148ZM49.8813 20.0148C49.0077 20.0148 48.1698 19.6677 47.552 19.05C46.9342 18.4322 46.5872 17.5943 46.5872 16.7207C46.5872 15.847 46.9342 15.0091 47.552 14.3914C48.1698 13.7736 49.0077 13.4265 49.8813 13.4265C50.755 13.4265 51.5929 13.7736 52.2106 14.3914C52.8284 15.0091 53.1755 15.847 53.1755 16.7207C53.1755 17.5943 52.8284 18.4322 52.2106 19.05C51.5929 19.6677 50.755 20.0148 49.8813 20.0148Z" fill="black"/>
</svg>
