<svg width="46" height="46" viewBox="0 0 46 46" fill="none" xmlns="http://www.w3.org/2000/svg">
<path d="M44.16 0H1.84C0.82225 0 0 0.82225 0 1.84V44.16C0 45.1777 0.82225 46 1.84 46H44.16C45.1777 46 46 45.1777 46 44.16V1.84C46 0.82225 45.1777 0 44.16 0ZM38.847 13.4263H35.1728C32.292 13.4263 31.7343 14.7947 31.7343 16.8072V21.2405H38.6113L37.7143 28.1807H31.7343V46H24.564V28.1865H18.5667V21.2405H24.564V16.123C24.564 10.1832 28.1923 6.946 33.4938 6.946C36.0353 6.946 38.2145 7.13575 38.8528 7.222V13.4263H38.847Z" fill="black"/>
</svg>
