<svg width="74" height="72" viewBox="0 0 74 72" fill="none" xmlns="http://www.w3.org/2000/svg">
<path d="M53.4626 48.25H43.476C42.356 48.25 41.4693 47.3633 41.4693 46.2433V36.2567C41.4693 35.16 42.356 34.25 43.476 34.25H53.4626C54.5593 34.25 55.4693 35.1367 55.4693 36.2567V46.2433C55.4693 47.3633 54.5826 48.25 53.4626 48.25Z" fill="black"/>
<path d="M42.1709 2.36607L42.18 2.37753L71.277 31.1526L71.2838 31.1595C71.9761 31.8369 72.5262 32.6466 72.9015 33.5409C73.2769 34.4352 73.4699 35.3959 73.4693 36.3664C73.4687 37.3368 73.2743 38.2973 72.8978 39.1911C72.5213 40.0849 71.9701 40.8939 71.277 41.5703C70.0291 42.8095 68.3772 43.5545 66.6256 43.668V57.7544C68.5753 58.2228 70.311 59.337 71.5526 60.9171C72.7943 62.4972 73.4694 64.4511 73.4692 66.4637V71.25H0.470169V66.4637C0.467032 64.4501 1.14108 62.4944 2.38315 60.9133C3.62521 59.3323 5.36256 58.2184 7.31383 57.7521V43.7596C5.56308 43.6379 3.91297 42.8933 2.66014 41.6596C1.9671 40.9809 1.41625 40.17 1.04001 39.2744C0.663766 38.3789 0.469725 37.4168 0.4693 36.4449C0.468875 35.4729 0.662074 34.5107 1.03753 33.6148C1.41299 32.719 1.96313 31.9075 2.65558 31.2282L2.66242 31.2236L9.59505 24.3716V8.31805C9.59505 4.96763 12.3508 2.54241 15.3962 2.54241H22.0665C24.5804 2.54241 26.8388 4.19128 27.587 6.5936L31.8415 2.38211C34.7159 -0.4851 39.3239 -0.430138 42.1663 2.36378L42.1709 2.36607ZM23.2824 17.2723V8.31805C23.2788 7.99775 23.1487 7.69198 22.9207 7.46785C22.6928 7.24372 22.3856 7.11956 22.0665 7.12261H15.3962C15.2363 7.11866 15.0772 7.14661 14.9281 7.20483C14.779 7.26305 14.6429 7.35039 14.5277 7.4618C14.4125 7.5732 14.3204 7.70645 14.2569 7.85382C14.1933 8.00119 14.1596 8.15976 14.1575 8.32034V26.2885L23.2824 17.2723ZM11.8763 62.0896H16.4387C16.4387 60.83 17.4653 59.7995 18.7199 59.7995V37.7916C18.7199 36.0741 20.1115 34.6771 21.8224 34.6771H33.8901C35.601 34.6771 36.9925 36.0741 36.9925 37.7916V59.8041C38.1947 59.8636 39.1597 60.869 39.1597 62.0896H62.0631V36.2206L37.0153 11.4578L11.8763 36.3099V62.0896ZM34.6885 47.2039C34.6885 46.9003 34.5683 46.609 34.3544 46.3943C34.1405 46.1795 33.8504 46.0589 33.5479 46.0589C33.2454 46.0589 32.9552 46.1795 32.7413 46.3943C32.5274 46.609 32.4073 46.9003 32.4073 47.2039C32.4073 47.5076 32.5274 47.7989 32.7413 48.0136C32.9552 48.2284 33.2454 48.349 33.5479 48.349C33.8504 48.349 34.1405 48.2284 34.3544 48.0136C34.5683 47.7989 34.6885 47.5076 34.6885 47.2039Z" fill="black"/>
</svg>
