<svg width="74" height="55" viewBox="0 0 74 55" fill="none" xmlns="http://www.w3.org/2000/svg">
<path d="M70.8334 0.0240061C70.5178 -0.00800205 70.1997 -0.00800205 69.8842 0.0240061H5.0604C4.64493 0.0303077 4.23222 0.0916293 3.83337 0.20632L37.2871 33L70.8334 0.0240061Z" fill="black"/>
<path d="M73.5596 3L40.3446 36.3481C39.4898 37.2048 38.3334 37.6856 37.1281 37.6856C35.9227 37.6856 34.7663 37.2048 33.9115 36.3481L0.993062 3.25299C0.891864 3.62796 0.838207 4.01435 0.833374 4.40292V50.4003C0.833374 51.6202 1.31406 52.7901 2.1697 53.6528C3.02533 54.5154 4.18582 55 5.39587 55H69.2709C70.4809 55 71.6414 54.5154 72.4971 53.6528C73.3527 52.7901 73.8334 51.6202 73.8334 50.4003V4.40292C73.8152 3.92375 73.7228 3.4504 73.5596 3ZM8.52119 50.4003H5.35025V47.1115L21.9349 30.5294L25.1515 33.7722L8.52119 50.4003ZM69.2253 50.4003H66.0315L49.4012 33.7722L52.6177 30.5294L69.2024 47.1115L69.2253 50.4003Z" fill="black"/>
</svg>
