<svg width="56" height="51" viewBox="0 0 56 51" fill="none" xmlns="http://www.w3.org/2000/svg">
<path d="M44.9542 2.87239C46.75 4.29452 47.9875 6.59159 48.4935 8.99698C48.5548 9.01657 48.6145 9.04071 48.6722 9.0692L54.296 11.6968C54.6103 11.8426 54.8768 12.0762 55.0639 12.37C55.251 12.6639 55.351 13.0057 55.352 13.355V47.7055C55.35 47.9909 55.2825 48.2719 55.155 48.5265C55.0274 48.7811 54.8431 49.0023 54.6167 49.173C54.3902 49.3436 54.1277 49.4589 53.8497 49.5098C53.5717 49.5607 53.2859 49.5459 53.0145 49.4665L37.4247 45.0224L18.8897 50.1831C18.5553 50.2759 18.2018 50.2721 17.8695 50.172L1.65549 45.2974C1.28072 45.1862 0.951461 44.9559 0.716627 44.6406C0.481792 44.3253 0.353914 43.942 0.35199 43.5475L0.35199 8.58034C0.35199 7.3582 1.52899 6.48048 2.70324 6.82491L18.3837 11.4385L26.3532 8.97476C26.4629 8.94206 26.5752 8.91883 26.6887 8.90532C26.9967 7.08322 27.8575 5.33334 29.3012 3.62789C31.0145 1.60025 34.0202 0.411442 36.949 0.269785C39.9877 0.122572 42.3087 0.778084 44.9515 2.86961L44.9542 2.87239ZM4.01774 11.033V42.1837L17.4102 46.2084V14.9688L4.01774 11.033ZM26.5925 12.7384L21.076 14.4411V45.7695L35.0047 41.8976V32.7454C35.0047 31.7344 35.827 30.915 36.839 30.915C37.851 30.915 38.6705 31.7344 38.6705 32.7482V41.5726L51.6862 45.2807V14.5188L48.6062 13.0745C48.554 13.38 48.488 13.68 48.4055 13.9717C47.8075 16.1014 46.8043 18.093 45.452 19.8352L38.6402 28.4262C38.4609 28.6521 38.2318 28.8326 37.9713 28.9534C37.7107 29.0741 37.4259 29.1318 37.1394 29.1219C36.8529 29.1119 36.5726 29.0345 36.3209 28.8959C36.0692 28.7573 35.853 28.5613 35.6895 28.3235L29.3232 19.0102C28.2727 17.527 27.5357 16.2048 27.1205 15.0216C26.8598 14.2831 26.6827 13.5171 26.5925 12.7384ZM37.125 3.93065C35.1285 4.02787 33.077 4.83893 32.1007 5.99163C30.9265 7.38042 30.349 8.68034 30.2335 9.99692C30.096 11.5829 30.1895 12.7023 30.58 13.8106C30.8687 14.6299 31.4435 15.6688 32.3317 16.9215L37.312 24.2043L42.5645 17.5797C43.6241 16.2119 44.4097 14.6486 44.8772 12.9773C45.5372 10.6441 44.5417 7.21655 42.6772 5.74442C40.766 4.23063 39.3222 3.82233 37.1277 3.93065H37.125ZM37.5045 5.86664C40.5405 5.86664 43.0045 8.32481 43.0045 11.3579C43.0005 12.0833 42.8551 12.8008 42.5765 13.4694C42.2979 14.138 41.8917 14.7446 41.3809 15.2545C40.8701 15.7645 40.2649 16.1678 39.5998 16.4414C38.9346 16.7151 38.2227 16.8536 37.5045 16.8492C34.4685 16.8492 32.0045 14.3911 32.0045 11.3579C32.0045 8.32481 34.4685 5.86664 37.5045 5.86664ZM37.5045 9.5275C37.2651 9.52604 37.0277 9.57223 36.8059 9.66342C36.5842 9.75462 36.3824 9.88904 36.212 10.059C36.0417 10.229 35.9062 10.4312 35.8132 10.6541C35.7203 10.8769 35.6717 11.1161 35.6702 11.3579C35.6702 12.369 36.4925 13.1884 37.5045 13.1884C37.7439 13.1895 37.9812 13.1429 38.2028 13.0514C38.4245 12.9599 38.6261 12.8251 38.7961 12.6549C38.9662 12.4847 39.1014 12.2823 39.194 12.0593C39.2867 11.8362 39.3349 11.597 39.336 11.3552C39.3324 10.8677 39.1375 10.4016 38.7942 10.059C38.4509 9.71642 37.9871 9.52529 37.5045 9.5275Z" fill="black"/>
</svg>
