<svg width="43" height="33" viewBox="0 0 43 33" fill="none" xmlns="http://www.w3.org/2000/svg">
<path fill-rule="evenodd" clip-rule="evenodd" d="M0 1.17857C0 0.865995 0.125843 0.566221 0.349845 0.345196C0.573847 0.124171 0.877658 0 1.19444 0H41.8056C42.1223 0 42.4262 0.124171 42.6502 0.345196C42.8742 0.566221 43 0.865995 43 1.17857C43 1.49115 42.8742 1.79092 42.6502 2.01195C42.4262 2.23297 42.1223 2.35714 41.8056 2.35714H1.19444C0.877658 2.35714 0.573847 2.23297 0.349845 2.01195C0.125843 1.79092 0 1.49115 0 1.17857ZM0 16.5C0 16.1874 0.125843 15.8876 0.349845 15.6666C0.573847 15.4456 0.877658 15.3214 1.19444 15.3214H41.8056C42.1223 15.3214 42.4262 15.4456 42.6502 15.6666C42.8742 15.8876 43 16.1874 43 16.5C43 16.8126 42.8742 17.1124 42.6502 17.3334C42.4262 17.5544 42.1223 17.6786 41.8056 17.6786H1.19444C0.877658 17.6786 0.573847 17.5544 0.349845 17.3334C0.125843 17.1124 0 16.8126 0 16.5ZM0 31.8214C0 31.5089 0.125843 31.2091 0.349845 30.9881C0.573847 30.767 0.877658 30.6429 1.19444 30.6429H41.8056C42.1223 30.6429 42.4262 30.767 42.6502 30.9881C42.8742 31.2091 43 31.5089 43 31.8214C43 32.134 42.8742 32.4338 42.6502 32.6548C42.4262 32.8758 42.1223 33 41.8056 33H1.19444C0.877658 33 0.573847 32.8758 0.349845 32.6548C0.125843 32.4338 0 32.134 0 31.8214Z" fill="black"/>
</svg>
