<svg width="39" height="40" viewBox="0 0 39 40" fill="none" xmlns="http://www.w3.org/2000/svg">
<path d="M17.3333 24.0833H20.5833C22.5946 24.0833 24.5234 23.2844 25.9456 21.8622C27.3677 20.4401 28.1667 18.5112 28.1667 16.5C28.1667 14.4888 27.3677 12.5599 25.9456 11.1378C24.5234 9.71562 22.5946 8.91667 20.5833 8.91667H13V30.5833H17.3333V24.0833ZM2.16667 0.25H36.8333C37.408 0.25 37.9591 0.478273 38.3654 0.884602C38.7717 1.29093 39 1.84203 39 2.41667V37.0833C39 37.658 38.7717 38.2091 38.3654 38.6154C37.9591 39.0217 37.408 39.25 36.8333 39.25H2.16667C1.59203 39.25 1.04093 39.0217 0.634602 38.6154C0.228273 38.2091 0 37.658 0 37.0833V2.41667C0 1.84203 0.228273 1.29093 0.634602 0.884602C1.04093 0.478273 1.59203 0.25 2.16667 0.25ZM17.3333 13.25H20.5833C21.4453 13.25 22.2719 13.5924 22.8814 14.2019C23.4909 14.8114 23.8333 15.638 23.8333 16.5C23.8333 17.362 23.4909 18.1886 22.8814 18.7981C22.2719 19.4076 21.4453 19.75 20.5833 19.75H17.3333V13.25Z" fill="black"/>
</svg>
