<svg width="50" height="66" viewBox="0 0 50 66" fill="none" xmlns="http://www.w3.org/2000/svg">
<path d="M10.348 0.25C9.75999 4.0525 10.7073 7.27 13.2553 9.9025C14.8887 11.5275 15.4113 13.705 14.7907 16.5H18.0247C18.4167 14.7125 18.482 13.25 18.1553 11.7875C17.8613 10.4225 16.8487 8.7975 15.052 6.8475C13.582 5.0275 13.0593 2.85 13.582 0.25H10.348ZM18.482 0.25C17.8613 4.0525 18.8413 7.27 21.3893 9.9025C23.0227 11.5275 23.5127 13.705 22.9247 16.5H26.126C26.4853 14.7125 26.5833 13.25 26.2893 11.7875C25.9627 10.4225 24.95 8.7975 23.2187 6.8475C21.6833 5.0275 21.1933 2.85 21.6833 0.25H18.482ZM26.7467 0.25C26.126 4.0525 27.106 7.27 29.654 9.9025C31.2873 11.5275 31.7447 13.705 31.026 16.5H34.3907C34.8153 14.7125 34.848 13.25 34.554 11.7875C34.26 10.4225 33.2147 8.7975 31.4833 6.8475C29.948 5.0275 29.458 2.85 29.948 0.25H26.7467ZM0.35199 19.75C0.35199 24.365 1.62599 28.525 4.07599 32.23C6.46314 35.8818 9.86881 38.7619 13.876 40.5175L0.874656 60.18C0.547989 60.57 0.35199 61.1875 0.35199 62C0.35199 63.3325 0.874657 64.2425 1.78932 64.73C2.18132 65.055 2.80199 65.25 3.61866 65.25C4.95799 65.25 5.87266 64.73 6.36266 63.82L9.59666 58.6525H30.4053C31.0913 60.5375 32.3327 62.1625 33.9333 63.365C35.5667 64.6 37.4613 65.25 39.552 65.25C42.2633 65.25 44.55 64.2425 46.51 62.2925C48.4373 60.375 49.352 58.1 49.352 55.5C49.352 52.8025 48.4373 50.5275 46.51 48.61C44.55 46.66 42.2633 45.75 39.552 45.75C37.4613 45.75 35.5667 46.3025 33.9333 47.5375C32.3 48.74 31.124 50.3325 30.4053 52.25H13.876L20.3113 42.3375C20.834 42.5 21.7813 42.5 23.2187 42.5C24.656 42.5 25.6033 42.5 26.126 42.3375L29.36 47.375C30.6993 45.62 32.496 44.255 34.554 43.41L32.7247 40.5175C36.3833 38.8925 39.552 36 42.1327 32.0025C44.746 27.875 46.0853 23.8775 46.0853 19.75H0.35199ZM39.552 52.25C40.532 52.25 41.2833 52.5425 41.904 53.16C42.5247 53.7775 42.8187 54.59 42.8187 55.5C42.8187 56.3775 42.5247 57.125 41.904 57.8075C41.316 58.4575 40.4667 58.75 39.552 58.75C38.7027 58.75 37.9187 58.4575 37.2327 57.8075C36.9296 57.504 36.6899 57.1439 36.5273 56.7479C36.3647 56.3519 36.2825 55.9278 36.2853 55.5C36.2853 54.525 36.5793 53.7775 37.2327 53.16C37.9187 52.5425 38.67 52.25 39.552 52.25Z" fill="black"/>
</svg>
