<svg width="46" height="52" viewBox="0 0 46 52" fill="none" xmlns="http://www.w3.org/2000/svg">
<path d="M22.852 39.1071C24.3438 39.1071 25.7746 38.5954 26.8295 37.6845C27.8844 36.7736 28.477 35.5382 28.477 34.25C28.477 32.9618 27.8844 31.7264 26.8295 30.8155C25.7746 29.9046 24.3438 29.3929 22.852 29.3929C21.3601 29.3929 19.9294 29.9046 18.8745 30.8155C17.8196 31.7264 17.227 32.9618 17.227 34.25C17.227 35.5382 17.8196 36.7736 18.8745 37.6845C19.9294 38.5954 21.3601 39.1071 22.852 39.1071ZM39.727 17.25C41.2188 17.25 42.6496 17.7617 43.7045 18.6726C44.7594 19.5835 45.352 20.8189 45.352 22.1071V46.3929C45.352 47.6811 44.7594 48.9165 43.7045 49.8274C42.6496 50.7383 41.2188 51.25 39.727 51.25H5.97699C4.48515 51.25 3.05441 50.7383 1.99951 49.8274C0.944622 48.9165 0.35199 47.6811 0.35199 46.3929V22.1071C0.35199 20.8189 0.944622 19.5835 1.99951 18.6726C3.05441 17.7617 4.48515 17.25 5.97699 17.25H8.78949V12.3929C8.78949 9.17237 10.2711 6.08379 12.9083 3.80656C15.5455 1.52933 19.1224 0.25 22.852 0.25C24.6987 0.25 26.5273 0.564084 28.2335 1.17432C29.9396 1.78456 31.4899 2.67899 32.7957 3.80656C34.1015 4.93413 35.1373 6.27275 35.844 7.74599C36.5508 9.21923 36.9145 10.7982 36.9145 12.3929V17.25H39.727ZM22.852 5.10714C20.6142 5.10714 18.4681 5.87474 16.8858 7.24108C15.3034 8.60742 14.4145 10.4606 14.4145 12.3929V17.25H31.2895V12.3929C31.2895 10.4606 30.4005 8.60742 28.8182 7.24108C27.2359 5.87474 25.0898 5.10714 22.852 5.10714Z" fill="black"/>
</svg>
