<svg width="56" height="40" viewBox="0 0 56 40" fill="none" xmlns="http://www.w3.org/2000/svg">
<path d="M45.8334 10C45.8334 15.525 41.3584 20 35.8334 20C34.6584 20 33.5583 19.75 32.5084 19.4C34.6597 16.7395 35.8333 13.4215 35.8333 10C35.8333 6.57851 34.6597 3.26054 32.5084 0.599998C33.5583 0.25 34.6584 0 35.8334 0C41.3584 0 45.8334 4.475 45.8334 10Z" fill="black"/>
<path d="M0.833374 32.5C0.833374 25.85 14.1584 22.5 20.8334 22.5C27.5084 22.5 40.8334 25.85 40.8334 32.5V37.5C40.8334 38.875 39.7084 40 38.3334 40H3.33337C1.95837 40 0.833374 38.875 0.833374 37.5V32.5Z" fill="black"/>
<path d="M20.8334 20C26.3562 20 30.8334 15.5229 30.8334 10C30.8334 4.47715 26.3562 0 20.8334 0C15.3105 0 10.8334 4.47715 10.8334 10C10.8334 15.5229 15.3105 20 20.8334 20Z" fill="black"/>
<path d="M39.8334 23C43.2963 25.3013 45.7228 28.4192 45.7228 32.5764V40H53.3057C54.6959 40 55.8334 38.8865 55.8334 37.5255V32.5764C55.8334 27.1819 46.8097 23.9898 39.8334 23Z" fill="black"/>
</svg>
