<svg width="63" height="55" viewBox="0 0 63 55" fill="none" xmlns="http://www.w3.org/2000/svg">
<path d="M63 17.6916C63 37.3838 33.8091 53.3231 32.5659 53.9814C32.2383 54.1577 31.872 54.25 31.5 54.25C31.128 54.25 30.7617 54.1577 30.4341 53.9814C29.1909 53.3231 0 37.3838 0 17.6916C0.00521082 13.0674 1.84404 8.63409 5.11308 5.36429C8.38212 2.09448 12.8144 0.255212 17.4375 0.25C23.2453 0.25 28.3303 2.74809 31.5 6.97065C34.6697 2.74809 39.7547 0.25 45.5625 0.25C50.1856 0.255212 54.6179 2.09448 57.8869 5.36429C61.156 8.63409 62.9948 13.0674 63 17.6916Z" fill="black"/>
<path d="M34.6133 24.4933C36.8914 24.4933 38.2933 21.2121 38.2933 19.1398C38.2933 17.4128 37.4171 15.3405 35.6648 15.3405C33.3867 15.3405 31.9848 18.6217 31.9848 20.694C31.9848 22.4209 32.861 24.4933 34.6133 24.4933ZM27.9543 24.4933C29.7067 24.4933 30.5829 22.4209 30.5829 20.694C30.5829 18.449 29.181 15.1678 26.9029 15.1678C25.1505 15.1678 24.2743 17.2401 24.2743 18.9671C24.099 21.2121 25.501 24.4933 27.9543 24.4933ZM40.9219 22.7663C38.6438 22.7663 37.0667 25.8748 37.0667 28.1198C37.0667 29.6741 37.7676 31.2283 39.3448 31.2283C41.6229 31.2283 43.2 28.1198 43.2 25.8748C43.2 24.3206 42.3238 22.7663 40.9219 22.7663ZM25.6762 28.1198C25.6762 25.8748 23.9238 22.7663 21.821 22.7663C20.2438 22.7663 19.5429 24.3206 19.5429 25.8748C19.5429 28.1198 21.2952 31.2283 23.3981 31.2283C24.9752 31.2283 25.6762 29.6741 25.6762 28.1198ZM31.2838 27.7744C27.7791 27.7744 23.0476 33.3006 23.0476 37.0999C23.0476 38.8268 24.2743 39.3449 25.6762 39.3449C27.779 39.3449 29.3562 37.9634 31.2838 37.9634C33.0362 37.9634 34.6133 39.3449 36.541 39.3449C37.9429 39.3449 39.52 38.9995 39.52 37.0999C39.52 33.3006 34.7886 27.7744 31.2838 27.7744Z" fill="#F2F2F2"/>
</svg>
