<svg width="25" height="55" viewBox="0 0 25 55" fill="none" xmlns="http://www.w3.org/2000/svg">
<path d="M24 27.504C24.0131 38.5399 19.8068 46.0053 15.2587 51.1986C13.3461 53.3846 10.4674 54.3849 7.76612 53.8649L5.03857 53.3449C2.48847 52.8547 0.773075 50.4468 1.03597 47.721L1.55519 42.2991C1.78194 39.9342 3.49405 38.1821 5.92584 37.4402C9.22848 36.4334 11.6767 35.7842 11.6767 35.7842C12.7887 33.169 13.3483 30.3491 13.3198 27.504C13.3198 24.1455 12.6133 21.7476 11.6767 19.2238C11.6767 19.2238 9.22519 18.5481 5.92584 17.5677C3.7208 16.9119 1.79509 15.8984 1.56505 13.5833L1.02611 8.19119C0.901016 6.87814 1.22793 5.56169 1.95198 4.46285C2.67602 3.36401 3.75311 2.54967 5.00242 2.15657L7.7234 1.33517C9.02584 0.928069 10.4145 0.891075 11.7364 1.22826C13.0584 1.56544 14.2624 2.26373 15.2159 3.24625C19.7706 7.96597 23.9901 16.4847 24 27.504ZM12.4095 39.0135L12.0973 39.0996L10.9209 39.4242C9.9153 39.709 8.50223 40.1131 6.87884 40.6099C5.39676 41.0637 4.89397 41.9016 4.82496 42.617L4.30574 48.0389C4.1973 49.1849 4.8874 49.9434 5.65309 50.0924L8.38064 50.6124C9.19175 50.7505 10.0245 50.6752 10.7982 50.3937C11.572 50.1123 12.2606 49.6343 12.7973 49.0061C16.9281 44.2863 20.7269 37.5727 20.7138 27.5106C20.7006 17.3226 16.7966 9.63857 12.8597 5.55477C12.3248 5.00603 11.6494 4.61766 10.9085 4.43287C10.1676 4.24809 9.39033 4.27415 8.66325 4.50815L5.93899 5.32955C4.93341 5.63095 4.18416 6.72062 4.29589 7.85998L4.83482 13.2521C4.84797 13.3812 4.87426 13.4243 4.87754 13.4309C4.9219 13.4957 4.97758 13.5518 5.04185 13.5965C5.33104 13.8284 5.87984 14.1033 6.85255 14.3914C8.60483 14.9109 10.3608 15.4177 12.1203 15.9117L12.4391 16.0011C13.6451 16.3389 14.4831 17.518 14.7559 18.0645C15.7615 20.7771 16.606 23.5957 16.606 27.504C16.634 30.7807 15.9907 34.0281 14.7164 37.0428C14.5127 37.5429 13.7832 38.6392 12.5114 38.987L12.4884 38.9936L12.4095 39.0135Z" fill="black" stroke="white"/>
</svg>
