<svg width="62" height="61" viewBox="0 0 62 61" fill="none" xmlns="http://www.w3.org/2000/svg">
<path d="M9.54725 8.71429C9.54725 7.5587 10.0063 6.45044 10.8234 5.63332C11.6405 4.8162 12.7487 4.35714 13.9042 4.35714C15.0597 4.35714 16.1679 4.8162 16.985 5.63332C17.8021 6.45044 18.2611 7.5587 18.2611 8.71429V30.7048C19.6597 30.866 21.1149 31.1405 22.6181 31.5326V26.1429H44.4028V39.2274C46.0018 39.2491 47.4614 39.0879 48.7597 38.8352V8.71429C48.7597 6.40311 47.8417 4.1866 46.2075 2.55235C44.5733 0.918109 42.3569 0 40.0458 0C37.7348 0 35.5184 0.918109 33.8842 2.55235C32.25 4.1866 31.332 6.40311 31.332 8.71429V10.8929C31.332 11.4707 31.5615 12.0248 31.97 12.4333C32.3786 12.8419 32.9327 13.0714 33.5104 13.0714C34.0882 13.0714 34.6423 12.8419 35.0508 12.4333C35.4594 12.0248 35.6889 11.4707 35.6889 10.8929V8.71429C35.6889 7.5587 36.1479 6.45044 36.965 5.63332C37.7821 4.8162 38.8903 4.35714 40.0458 4.35714C41.2014 4.35714 42.3096 4.8162 43.1267 5.63332C43.9437 6.45044 44.4028 7.5587 44.4028 8.71429V21.7857H22.6181V8.71429C22.6181 6.40311 21.7 4.1866 20.0658 2.55235C18.4317 0.918109 16.2153 0 13.9042 0C11.5931 0 9.37672 0.918109 7.74255 2.55235C6.10838 4.1866 5.19031 6.40311 5.19031 8.71429V10.8929C5.19031 11.4707 5.41983 12.0248 5.82837 12.4333C6.23692 12.8419 6.79102 13.0714 7.36878 13.0714C7.94655 13.0714 8.50065 12.8419 8.90919 12.4333C9.31774 12.0248 9.54725 11.4707 9.54725 10.8929V8.71429ZM44.7295 47.9286C39.8933 47.9286 34.1901 46.7609 28.0512 43.2229C13.1592 34.6349 4.88533 42.578 4.58034 42.8786C4.16738 43.2837 3.61204 43.5106 3.03363 43.5106C2.45521 43.5106 1.89987 43.2837 1.48692 42.8786C1.28106 42.6847 1.11703 42.4508 1.00491 42.1912C0.892797 41.9315 0.834962 41.6517 0.834962 41.3689C0.834962 41.0861 0.892797 40.8063 1.00491 40.5466C1.11703 40.287 1.28106 40.053 1.48692 39.8591C1.94875 39.3973 12.3139 29.1275 30.2732 39.4234C45.8624 48.4035 57.8832 39.9463 58.3624 39.5977C58.8341 39.2678 59.4153 39.1335 59.9839 39.2228C60.5525 39.3122 61.0645 39.6183 61.4123 40.077C62.1094 41.0225 61.9351 42.3601 60.933 43.0965C60.5409 43.3971 54.2233 47.8894 44.7295 47.8894V47.9286ZM28.0512 56.2943C34.1945 59.8366 39.8977 61 44.7295 61V60.9564C54.2277 60.9564 60.5365 56.4686 60.9287 56.1636C61.1603 55.9983 61.3568 55.7886 61.5066 55.5467C61.6564 55.3047 61.7565 55.0353 61.8011 54.7543C61.8458 54.4732 61.834 54.1861 61.7664 53.9096C61.6989 53.6332 61.5771 53.3729 61.4079 53.1441C61.0595 52.6861 60.5472 52.3808 59.9786 52.2923C59.4101 52.2037 58.8293 52.3388 58.3581 52.6691C57.8788 53.0177 45.8624 61.4749 30.2732 52.4949C12.3139 42.1989 1.95311 52.4687 1.48692 52.9306C0.615527 53.7454 0.615527 55.1309 1.48692 55.9501C2.3583 56.8128 3.75252 56.7692 4.58034 55.9501C4.88533 55.6451 13.1592 47.702 28.0512 56.2943Z" fill="black"/>
</svg>
