<svg width="63" height="63" viewBox="0 0 63 63" fill="none" xmlns="http://www.w3.org/2000/svg">
<path d="M57.0629 0H5.18793C3.81212 0 2.49266 0.546538 1.51981 1.51938C0.546966 2.49223 0.000427246 3.81169 0.000427246 5.1875V57.0625C0.000427246 58.4383 0.546966 59.7578 1.51981 60.7306C2.49266 61.7035 3.81212 62.25 5.18793 62.25H57.0629C58.4387 62.25 59.7582 61.7035 60.731 60.7306C61.7039 59.7578 62.2504 58.4383 62.2504 57.0625V5.1875C62.2504 3.81169 61.7039 2.49223 60.731 1.51938C59.7582 0.546538 58.4387 0 57.0629 0ZM49.2817 33.7188H33.7192V49.2812C33.7192 49.9692 33.4459 50.6289 32.9595 51.1153C32.4731 51.6017 31.8133 51.875 31.1254 51.875C30.4375 51.875 29.7778 51.6017 29.2914 51.1153C28.8049 50.6289 28.5317 49.9692 28.5317 49.2812V33.7188H12.9692C12.2813 33.7188 11.6215 33.4455 11.1351 32.9591C10.6487 32.4726 10.3754 31.8129 10.3754 31.125C10.3754 30.4371 10.6487 29.7774 11.1351 29.2909C11.6215 28.8045 12.2813 28.5312 12.9692 28.5312H28.5317V12.9688C28.5317 12.2808 28.8049 11.6211 29.2914 11.1347C29.7778 10.6483 30.4375 10.375 31.1254 10.375C31.8133 10.375 32.4731 10.6483 32.9595 11.1347C33.4459 11.6211 33.7192 12.2808 33.7192 12.9688V28.5312H49.2817C49.9696 28.5312 50.6293 28.8045 51.1157 29.2909C51.6022 29.7774 51.8754 30.4371 51.8754 31.125C51.8754 31.8129 51.6022 32.4726 51.1157 32.9591C50.6293 33.4455 49.9696 33.7188 49.2817 33.7188Z" fill="black"/>
</svg>
