<svg width="52" height="51" viewBox="0 0 52 51" fill="none" xmlns="http://www.w3.org/2000/svg">
<path fill-rule="evenodd" clip-rule="evenodd" d="M23.7961 8.5947e-08C20.1277 0.000397278 16.5128 0.879528 13.254 2.5638C9.99519 4.24807 7.18728 6.68847 5.06533 9.6807C2.94339 12.6729 1.56916 16.1299 1.05769 19.7623C0.546224 23.3947 0.912394 27.0967 2.12555 30.5585C3.33871 34.0203 5.36355 37.1411 8.03057 39.6597C10.6976 42.1783 13.9292 44.0214 17.4548 45.0347C20.9805 46.048 24.6976 46.202 28.2949 45.4838C31.8923 44.7656 35.2653 43.1961 38.1315 40.9067L47.509 50.2837C47.9902 50.7485 48.6348 51.0057 49.3039 50.9999C49.9729 50.9941 50.6129 50.7257 51.086 50.2527C51.5591 49.7796 51.8275 49.1396 51.8333 48.4706C51.8391 47.8016 51.5819 47.1571 51.1171 46.6758L41.7396 37.2988C44.4393 33.9202 46.13 29.8479 46.6172 25.5508C47.1043 21.2537 46.3681 16.9063 44.4933 13.0092C42.6185 9.11198 39.6812 5.82339 36.0196 3.52191C32.3581 1.22044 28.121 -0.000374002 23.7961 8.5947e-08ZM8.48597 22.9641C8.48597 20.9536 8.88198 18.9629 9.65138 17.1055C10.4208 15.248 11.5485 13.5603 12.9702 12.1387C14.3919 10.7171 16.0797 9.58943 17.9372 8.82006C19.7947 8.05069 21.7856 7.6547 23.7961 7.6547C25.8067 7.6547 27.7975 8.05069 29.6551 8.82006C31.5126 9.58943 33.2003 10.7171 34.622 12.1387C36.0437 13.5603 37.1714 15.248 37.9409 17.1055C38.7103 18.9629 39.1063 20.9536 39.1063 22.9641C39.1063 27.0244 37.4932 30.9184 34.622 33.7895C31.7508 36.6606 27.8566 38.2735 23.7961 38.2735C19.7356 38.2735 15.8414 36.6606 12.9702 33.7895C10.099 30.9184 8.48597 27.0244 8.48597 22.9641Z" fill="black"/>
</svg>
