<svg width="44" height="45" viewBox="0 0 44 45" fill="none" xmlns="http://www.w3.org/2000/svg">
<path fill-rule="evenodd" clip-rule="evenodd" d="M0 6.25C0 4.6587 0.632141 3.13258 1.75736 2.00736C2.88258 0.882141 4.4087 0.25 6 0.25H38C39.5913 0.25 41.1174 0.882141 42.2426 2.00736C43.3679 3.13258 44 4.6587 44 6.25V38.25C44 41.5646 41.3146 44.25 38 44.25H14C10.6854 44.25 8 41.5646 8 38.25V36.25H6C4.4087 36.25 2.88258 35.6179 1.75736 34.4926C0.632141 33.3674 0 31.8413 0 30.25V6.25ZM4.58579 4.83579C4.96086 4.46071 5.46957 4.25 6 4.25H38C38.5304 4.25 39.0391 4.46071 39.4142 4.83579C39.7893 5.21086 40 5.71957 40 6.25V38.25C40 39.3554 39.1054 40.25 38 40.25H14C12.8946 40.25 12 39.3554 12 38.25V36.25H30C31.5913 36.25 33.1174 35.6179 34.2426 34.4926C35.3679 33.3674 36 31.8413 36 30.25V10.25C36 9.14543 35.1046 8.25 34 8.25C32.8954 8.25 32 9.14543 32 10.25V14.25H4V6.25C4 5.71957 4.21071 5.21086 4.58579 4.83579ZM4 18.25V22.25H32V18.25H4ZM32 26.25H4V30.25C4 30.7804 4.21071 31.2891 4.58579 31.6642C4.96086 32.0393 5.46957 32.25 6 32.25H30C30.5304 32.25 31.0391 32.0393 31.4142 31.6642C31.7893 31.2891 32 30.7804 32 30.25V26.25Z" fill="black"/>
</svg>
