<svg width="51" height="51" viewBox="0 0 51 51" fill="none" xmlns="http://www.w3.org/2000/svg">
<path d="M25.352 0.25C28.6672 0.25 31.8466 1.56696 34.1908 3.91116C36.535 6.25537 37.852 9.43479 37.852 12.75C37.852 16.0652 36.535 19.2446 34.1908 21.5888C31.8466 23.933 28.6672 25.25 25.352 25.25C22.0368 25.25 18.8574 23.933 16.5132 21.5888C14.169 19.2446 12.852 16.0652 12.852 12.75C12.852 9.43479 14.169 6.25537 16.5132 3.91116C18.8574 1.56696 22.0368 0.25 25.352 0.25ZM25.352 31.5C39.1645 31.5 50.352 37.0938 50.352 44V50.25H0.35199V44C0.35199 37.0938 11.5395 31.5 25.352 31.5Z" fill="black"/>
</svg>
