<svg width="60" height="51" viewBox="0 0 60 51" fill="none" xmlns="http://www.w3.org/2000/svg">
<path d="M30.7493 40.17C39.3973 40.17 46.4233 33.537 46.7223 25.25C46.4233 16.963 39.3973 10.33 30.7493 10.33C22.1023 10.33 15.0743 16.963 14.7793 25.25C15.0733 33.537 22.1013 40.17 30.7493 40.17Z" fill="black"/>
<path d="M30.7505 3.24997C18.6005 3.24997 8.74951 13.1 8.74951 25.25C8.74951 37.399 18.6015 47.25 30.7505 47.25C42.8995 47.25 52.7505 37.399 52.7505 25.25C52.7505 13.1 42.8995 3.24997 30.7505 3.24997ZM30.7495 41.25C21.9125 41.25 14.7485 34.329 14.7485 25.789C14.7485 25.607 14.7733 25.43 14.7793 25.25C14.7733 25.07 14.7485 24.892 14.7485 24.711C14.7485 16.171 21.9135 9.24997 30.7495 9.24997C39.5865 9.24997 46.7495 16.171 46.7495 24.711C46.7495 24.892 46.7285 25.07 46.7235 25.25C46.7295 25.43 46.7495 25.607 46.7495 25.789C46.7485 34.329 39.5865 41.25 30.7495 41.25Z" fill="black"/>
<path d="M1.48143 0.670971C1.72143 -0.270029 2.19643 0.659971 2.19643 0.659971C2.19643 0.659971 2.36243 10.4 3.44243 10.506C4.52243 10.612 3.69043 0.483971 4.96843 0.289971C6.15643 0.100971 5.47843 10.667 6.56043 10.56C7.63843 10.446 7.82043 0.709971 7.82043 0.709971C7.82043 0.709971 8.30043 -0.219029 8.53743 0.714971C11.4654 12.225 9.09643 16.93 9.09643 16.93C9.09643 16.93 8.69643 17.919 7.74643 17.924C7.65743 17.919 7.72443 45.26 7.71843 48.936C7.72043 50.723 2.21843 50.668 2.22143 48.889C2.22543 45.213 2.33243 17.875 2.24643 17.877C1.29343 17.877 0.894427 16.889 0.894427 16.889C0.894427 16.889 -1.46557 12.187 1.48143 0.670971ZM53.6204 0.249971C54.8584 0.246971 59.9944 3.94997 60.0004 17.712C60.0064 22.113 57.6054 22.112 57.6094 24.865C57.6134 27.613 57.6284 49.471 57.6284 49.471C57.6284 49.471 54.9944 51.278 53.0364 49.387L53.0004 0.640971C53.0024 0.641971 52.9954 0.248971 53.6204 0.249971Z" fill="black"/>
</svg>
