<svg width="51" height="51" viewBox="0 0 51 51" fill="none" xmlns="http://www.w3.org/2000/svg">
<path d="M25.4167 0.166626C39.4543 0.166626 50.8334 11.5457 50.8334 25.5833C50.8334 39.6209 39.4543 51 25.4167 51C20.925 51.0072 16.5124 49.8185 12.6321 47.556L0.0102024 51L3.44654 38.373C1.18215 34.4915 -0.00746837 30.077 3.5279e-05 25.5833C3.5279e-05 11.5457 11.3791 0.166626 25.4167 0.166626ZM16.7547 13.6375L16.2464 13.6578C15.9173 13.6778 15.5956 13.7643 15.3009 13.912C15.0252 14.0681 14.7735 14.2633 14.5536 14.4915C14.2486 14.7787 14.0758 15.0278 13.8902 15.2692C12.9501 16.4915 12.444 17.9921 12.4517 19.5341C12.4567 20.7795 12.7821 21.9919 13.2904 23.1255C14.33 25.4181 16.0405 27.8454 18.2975 30.0947C18.8414 30.6361 19.3752 31.18 19.9496 31.6858C22.754 34.155 26.096 35.9356 29.7096 36.8861L31.1532 37.1072C31.6235 37.1326 32.0937 37.097 32.5664 37.0742C33.3066 37.036 34.0294 36.8355 34.6836 36.487C35.0165 36.3156 35.3413 36.129 35.6571 35.9279C35.6571 35.9279 35.7664 35.8567 35.9748 35.6991C36.3179 35.445 36.5289 35.2645 36.8135 34.9671C37.0245 34.7485 37.2075 34.4918 37.3473 34.1995C37.5455 33.7853 37.7438 32.9948 37.8251 32.3365C37.8861 31.8332 37.8683 31.5588 37.8607 31.3885C37.8505 31.1165 37.6243 30.8344 37.3778 30.7149L35.8985 30.0515C35.8985 30.0515 33.6873 29.0882 32.3351 28.4732C32.1936 28.4114 32.042 28.3761 31.8878 28.369C31.7139 28.3511 31.5382 28.3707 31.3725 28.4263C31.2068 28.482 31.0549 28.5725 30.927 28.6917C30.9143 28.6867 30.744 28.8315 28.9064 31.058C28.8009 31.1998 28.6557 31.3069 28.4891 31.3657C28.3225 31.4246 28.1422 31.4325 27.9711 31.3885C27.8055 31.3441 27.6433 31.288 27.4856 31.2207C27.1704 31.0885 27.0612 31.0377 26.8451 30.9462C25.3864 30.3096 24.0358 29.4495 22.842 28.3969C22.5217 28.1173 22.2244 27.8123 21.9194 27.5175C20.9194 26.5599 20.048 25.4766 19.3269 24.2947L19.1769 24.0532C19.0692 23.891 18.9821 23.7159 18.9177 23.5322C18.8211 23.1585 19.0727 22.8586 19.0727 22.8586C19.0727 22.8586 19.6903 22.1825 19.9775 21.8165C20.2571 21.4607 20.4935 21.115 20.646 20.8685C20.9459 20.3856 21.04 19.89 20.8824 19.5062C20.1707 17.7677 19.4336 16.0368 18.6762 14.3186C18.5262 13.978 18.0815 13.734 17.6773 13.6858C17.5401 13.6705 17.4028 13.6552 17.2656 13.6451C16.9242 13.6281 16.5822 13.6315 16.2413 13.6553L16.7522 13.6349L16.7547 13.6375Z" fill="black"/>
</svg>
