<svg width="62" height="53" viewBox="0 0 62 53" fill="none" xmlns="http://www.w3.org/2000/svg">
<path d="M44.1401 30.6396C44.4858 30.9695 44.7627 31.3647 44.955 31.8022C45.1473 32.2397 45.251 32.7109 45.2603 33.1887C45.2696 33.6665 45.1842 34.1414 45.0091 34.586C44.834 35.0307 44.5726 35.4362 44.24 35.7794C43.9073 36.1225 43.5101 36.3964 43.0711 36.5853C42.6321 36.7741 42.1601 36.8743 41.6823 36.8798C41.2044 36.8854 40.7302 36.7964 40.2869 36.6178C39.8437 36.4392 39.4401 36.1747 39.0996 35.8394C38.9816 35.7251 38.8583 35.6164 38.7302 35.5135C38.0444 34.9848 37.2842 34.5601 36.4743 34.2534C34.834 33.6016 32.8532 33.2395 30.7567 33.2395C27.447 33.2395 24.4814 34.1484 22.7831 35.5172C22.6491 35.6258 22.526 35.7308 22.4138 35.8394C22.0732 36.1747 21.6697 36.4392 21.2264 36.6178C20.7831 36.7964 20.3089 36.8854 19.8311 36.8798C19.3532 36.8743 18.8812 36.7741 18.4422 36.5853C18.0032 36.3964 17.606 36.1225 17.2734 35.7794C16.9407 35.4362 16.6793 35.0307 16.5042 34.586C16.3291 34.1414 16.2437 33.6665 16.253 33.1887C16.2623 32.7109 16.366 32.2397 16.5583 31.8022C16.7506 31.3647 17.0275 30.9695 17.3732 30.6396C17.6484 30.3753 17.9381 30.1182 18.2423 29.8719C21.3238 27.3988 25.89 25.9974 30.7567 25.9974C33.7513 25.9974 36.6373 26.5261 39.143 27.5182C40.7001 28.1338 42.0942 28.9268 43.271 29.8719C43.5752 30.1182 43.8649 30.3753 44.1401 30.6396Z" fill="black"/>
<path d="M53.255 21.2502C53.5967 21.5874 53.868 21.9892 54.0531 22.4323C54.2381 22.8754 54.3331 23.3508 54.3327 23.8309C54.3323 24.3111 54.2364 24.7864 54.0505 25.2291C53.8647 25.6718 53.5927 26.0732 53.2503 26.4098C52.9079 26.7464 52.502 27.0116 52.0562 27.1898C51.6104 27.3681 51.1336 27.456 50.6535 27.4483C50.1734 27.4405 49.6996 27.3374 49.2598 27.1449C48.8199 26.9524 48.4227 26.6743 48.0913 26.3269C47.7324 25.9641 47.3553 25.6196 46.9616 25.2949C46.0912 24.5881 45.162 23.9569 44.1842 23.4083C43.1046 22.8013 41.9756 22.2865 40.8094 21.8694C39.5626 21.4136 38.2832 21.0529 36.982 20.7903C35.6242 20.5096 34.2485 20.3245 32.8648 20.2363C30.7628 20.0982 28.6523 20.1685 26.5642 20.4463C25.2168 20.6285 23.8835 20.9032 22.5738 21.2683C21.3362 21.6187 20.126 22.0592 18.9527 22.5863C17.8773 23.0783 16.8432 23.6559 15.8603 24.3136C15.4095 24.6188 14.9733 24.945 14.5531 25.2912C14.1593 25.6171 13.7822 25.9628 13.4234 26.3269C13.0943 26.6829 12.6971 26.9692 12.2553 27.1689C11.8135 27.3685 11.3361 27.4774 10.8514 27.4891C10.3667 27.5008 9.88463 27.415 9.43372 27.2369C8.98281 27.0588 8.57226 26.7919 8.22642 26.4521C7.88058 26.1124 7.60649 25.7066 7.42042 25.2589C7.23434 24.8112 7.14006 24.3307 7.14317 23.8459C7.14628 23.3611 7.24671 22.8818 7.43852 22.4366C7.63032 21.9913 7.90959 21.5891 8.25976 21.2538C8.78481 20.7215 9.34245 20.2109 9.93268 19.7184C11.7667 18.2199 13.7902 16.9695 15.9509 15.9996C17.4562 15.3123 19.0132 14.7444 20.6075 14.3013C22.2451 13.839 23.914 13.4953 25.601 13.273C27.3099 13.0406 29.0327 12.9245 30.7574 12.9253C32.4819 12.9263 34.2044 13.0412 35.9137 13.2694C37.6012 13.4964 39.2709 13.84 40.9108 14.2977C42.5014 14.7487 44.0567 15.3163 45.5638 15.996C47.0127 16.658 48.4054 17.4367 49.7281 18.3243C50.9965 19.182 52.1778 20.1619 53.255 21.2502Z" fill="black"/>
<path d="M60.6122 12.317C61.2215 13.0369 61.5259 13.9662 61.4606 14.9071C61.3953 15.848 60.9655 16.7263 60.2626 17.3551C59.5596 17.984 58.6391 18.3137 57.6968 18.2743C56.7544 18.2349 55.8647 17.8293 55.2168 17.1439C54.695 16.5621 54.1439 16.0074 53.5656 15.4818C52.9632 14.9329 52.3349 14.4133 51.6826 13.9248C50.2959 12.8994 48.824 11.9945 47.283 11.2198C45.6441 10.3978 43.9385 9.71583 42.1846 9.18119C40.3595 8.61312 38.4925 8.18936 36.6009 7.91382C34.666 7.62866 32.7124 7.48826 30.7566 7.49378C28.8008 7.49362 26.8475 7.63521 24.9122 7.91744C23.0217 8.19896 21.1552 8.62261 19.3285 9.18481C17.5789 9.72982 15.8753 10.4127 14.2337 11.2271C13.4491 11.6197 12.6819 12.0462 11.9343 12.5053C11.213 12.9475 10.5122 13.4224 9.83412 13.9284C9.18184 14.4169 8.55346 14.9365 7.95117 15.4854C7.37149 16.0121 6.81916 16.568 6.29634 17.1511C5.65307 17.8564 4.75734 18.2791 3.80402 18.3273C2.85069 18.3755 1.91688 18.0454 1.20571 17.4087C0.494545 16.772 0.0635513 15.8802 0.00648293 14.9274C-0.0505855 13.9745 0.270888 13.0377 0.900975 12.3206C2.29181 10.7784 3.82957 9.37521 5.49247 8.13109C8.11335 6.18773 10.9764 4.59432 14.0092 3.39113C16.1061 2.54917 18.2677 1.87829 20.4728 1.38506C22.7166 0.875473 24.996 0.537736 27.2912 0.37479C30.7517 0.123989 34.2291 0.25148 37.6619 0.755001C39.9202 1.09057 42.1499 1.59654 44.3319 2.2686C46.4587 2.93052 48.5293 3.76117 50.5239 4.75264C52.4498 5.71877 54.2889 6.8491 56.0206 8.13109C57.6892 9.3697 59.2287 10.7733 60.6158 12.3206L60.6122 12.317ZM37.9987 45.0079C37.9987 46.9286 37.2357 48.7707 35.8775 50.1288C34.5193 51.487 32.6773 52.25 30.7566 52.25C28.8358 52.25 26.9938 51.487 25.6356 50.1288C24.2775 48.7707 23.5145 46.9286 23.5145 45.0079C23.5145 43.0872 24.2775 41.2451 25.6356 39.887C26.9938 38.5288 28.8358 37.7658 30.7566 37.7658C32.6773 37.7658 34.5193 38.5288 35.8775 39.887C37.2357 41.2451 37.9987 43.0872 37.9987 45.0079Z" fill="black"/>
</svg>
